<svg width="40" height="40" viewBox="0 0 40 40" fill="none" xmlns="http://www.w3.org/2000/svg">
<path d="M20 40C31.0457 40 40 31.0457 40 20C40 8.9543 31.0457 0 20 0C8.9543 0 0 8.9543 0 20C0 31.0457 8.9543 40 20 40Z" fill="#FF6678" fill-opacity="0.3"/>
<path fill-rule="evenodd" clip-rule="evenodd" d="M20 11.6667C24.6023 11.6667 28.3333 15.3976 28.3333 20C28.3333 24.6024 24.6023 28.3333 20 28.3333C15.3976 28.3333 11.6666 24.6024 11.6666 20C11.6666 15.3976 15.3976 11.6667 20 11.6667ZM18.0892 16.9107C17.7638 16.5853 17.2361 16.5853 16.9107 16.9107C16.5853 17.2362 16.5853 17.7638 16.9107 18.0892L18.8214 20L16.9107 21.9107C16.5853 22.2362 16.5853 22.7638 16.9107 23.0892C17.2361 23.4147 17.7638 23.4147 18.0892 23.0892L20 21.1785L21.9107 23.0892C22.2361 23.4147 22.7638 23.4147 23.0892 23.0892C23.4147 22.7638 23.4147 22.2362 23.0892 21.9107L21.1785 20L23.0892 18.0892C23.4147 17.7638 23.4147 17.2362 23.0892 16.9107C22.7638 16.5853 22.2361 16.5853 21.9107 16.9107L20 18.8215L18.0892 16.9107Z" fill="#FF6678"/>
</svg>
