<svg width="186" height="48" viewBox="0 0 186 48" fill="none" xmlns="http://www.w3.org/2000/svg">
<g clip-path="url(#clip0)">
<path d="M44.601 12.1784L43.5753 10.3774C43.4949 10.2362 43.3829 10.1156 43.2482 10.0248C43.1134 9.93411 42.9595 9.87573 42.7985 9.85429C42.6374 9.83284 42.4736 9.8489 42.3198 9.90122C42.166 9.95353 42.0263 10.0407 41.9118 10.1559L39.5528 12.5128C39.3803 12.6861 39.273 12.9137 39.2491 13.1571C39.2252 13.4004 39.2861 13.6446 39.4215 13.8482C40.2817 15.1626 40.971 16.5812 41.4728 18.0697C42.4103 20.8523 42.6721 23.8181 42.2366 26.722C41.801 29.6258 40.6806 32.3843 38.9679 34.7694C37.2553 37.1545 34.9995 39.0978 32.3872 40.4385C29.7748 41.7793 26.8809 42.479 23.9446 42.48C20.9218 42.4883 17.9439 41.7491 15.2759 40.3282L19.2656 36.3364C21.7379 37.2715 24.4338 37.4435 27.0049 36.8303C29.576 36.2171 31.904 34.8468 33.6881 32.8966C35.4723 30.9464 36.6304 28.5058 37.0129 25.8905C37.3954 23.2751 36.9847 20.6051 35.8338 18.2256C35.7607 18.0732 35.6522 17.9406 35.5173 17.8389C35.3823 17.7372 35.225 17.6693 35.0584 17.6409C34.8918 17.6126 34.7209 17.6247 34.5599 17.6761C34.3989 17.7275 34.2526 17.8167 34.1333 17.9364L31.7456 20.3077C31.6183 20.4348 31.5256 20.5924 31.4764 20.7655C31.4273 20.9385 31.4232 21.1213 31.4646 21.2964L31.6697 22.1538C32.0227 23.6558 31.9295 25.2282 31.4016 26.6779C30.8737 28.1277 29.934 29.3918 28.6979 30.3152C27.4617 31.2385 25.9829 31.7809 24.443 31.8758C22.903 31.9706 21.3688 31.6138 20.0287 30.8492L18.9764 30.2461C18.7753 30.1303 18.5415 30.0842 18.3115 30.115C18.0815 30.1458 17.8681 30.2517 17.7046 30.4164L7.95894 40.16C7.85256 40.2664 7.77013 40.3942 7.71716 40.5351C7.6642 40.6759 7.64192 40.8264 7.65183 40.9765C7.66173 41.1266 7.70359 41.2729 7.7746 41.4055C7.8456 41.5382 7.94412 41.6541 8.06356 41.7456L9.49946 42.8472C13.6404 46.0382 18.725 47.7615 23.9528 47.7456C28.1148 47.7403 32.2027 46.6433 35.8083 44.5643C39.4139 42.4853 42.4111 39.4969 44.5008 35.8974C46.5904 32.2979 47.6994 28.2133 47.717 24.0513C47.7345 19.8893 46.6601 15.7954 44.601 12.1784Z" fill="url(#paint0_linear)"/>
<path d="M38.402 5.09132C34.2616 1.89908 29.1768 0.175048 23.9487 0.190811C19.7846 0.194048 15.6943 1.28998 12.0864 3.3691C8.47852 5.44823 5.47942 8.43774 3.38875 12.0389C1.29808 15.6401 0.189062 19.7269 0.172491 23.891C0.15592 28.055 1.23238 32.1505 3.29432 35.7682L4.31996 37.5672C4.40073 37.7082 4.51289 37.8288 4.64775 37.9194C4.7826 38.0101 4.93652 38.0685 5.09759 38.0902C5.25865 38.1118 5.42253 38.096 5.57653 38.0441C5.73052 37.9922 5.87049 37.9055 5.9856 37.7908L8.34047 35.4359C8.51176 35.2623 8.61825 35.0352 8.64215 34.7925C8.66605 34.5498 8.6059 34.3063 8.47175 34.1026C7.6108 32.7886 6.92145 31.3699 6.42047 29.8811C5.48293 27.0984 5.22112 24.1326 5.65668 21.2288C6.09224 18.325 7.21266 15.5665 8.92533 13.1814C10.638 10.7963 12.8937 8.85302 15.5061 7.51227C18.1184 6.17151 21.0124 5.47174 23.9487 5.47081C26.9714 5.46397 29.9488 6.20533 32.6153 7.62876L28.6235 11.6185C26.6239 10.8606 24.4701 10.5996 22.3473 10.8579C20.2245 11.1161 18.1962 11.886 16.4366 13.1012C14.677 14.3164 13.2388 15.9407 12.2455 17.8345C11.2523 19.7283 10.7337 21.8349 10.7343 23.9734C10.7343 24.1929 10.7938 25.1939 10.8123 25.3662C10.974 26.8812 11.3952 28.3571 12.0574 29.7293C12.1307 29.8817 12.2395 30.0143 12.3746 30.116C12.5097 30.2177 12.6672 30.2856 12.8339 30.3139C13.0007 30.3422 13.1717 30.3302 13.3329 30.2788C13.494 30.2274 13.6404 30.1381 13.76 30.0185L16.1476 27.6288C16.2748 27.5019 16.3675 27.3448 16.4171 27.1721C16.4666 26.9995 16.4713 26.8171 16.4307 26.6421L16.2256 25.7826C15.8722 24.2806 15.9651 22.708 16.4929 21.2581C17.0207 19.8081 17.9605 18.5439 19.1969 17.6206C20.4332 16.6973 21.9123 16.1552 23.4524 16.0608C24.9926 15.9664 26.5268 16.3239 27.8666 17.0893L28.9189 17.6923C29.1203 17.8071 29.3538 17.8527 29.5836 17.8219C29.8133 17.7911 30.0266 17.6858 30.1907 17.5221L39.9343 7.7785C40.0409 7.67207 40.1235 7.54414 40.1766 7.40324C40.2298 7.26233 40.2522 7.11171 40.2425 6.96144C40.2328 6.81116 40.1911 6.66468 40.1203 6.53179C40.0495 6.3989 39.9511 6.28265 39.8317 6.19081L38.402 5.09132Z" fill="url(#paint1_linear)"/>
<path d="M78.4575 30.5312C78.2798 30.3869 78.0565 30.3106 77.8276 30.3158C77.5987 30.3211 77.3792 30.4076 77.2083 30.5599C75.6801 31.7456 73.9077 32.843 71.317 32.843C66.5744 32.843 62.7159 28.8492 62.7159 23.9364C62.7159 19.0235 66.56 14.9948 71.2821 14.9948C73.3334 14.9948 75.5488 15.8584 77.1775 17.2882C77.2693 17.3946 77.3834 17.4796 77.5117 17.537C77.6401 17.5945 77.7795 17.623 77.9201 17.6205C78.0419 17.6108 78.1601 17.5746 78.2664 17.5143C78.3727 17.4541 78.4645 17.3713 78.5354 17.2717L80.078 15.6841C80.1762 15.589 80.2537 15.4748 80.3055 15.3484C80.3574 15.222 80.3826 15.0863 80.3796 14.9497C80.3738 14.8109 80.3394 14.6748 80.2787 14.5499C80.218 14.4249 80.1323 14.3139 80.0267 14.2235C77.3334 11.8769 74.6277 10.8307 71.2452 10.8307C64.0247 10.8307 58.1498 16.7425 58.1498 24.0082C58.1525 27.4814 59.5327 30.8117 61.9877 33.2686C64.4427 35.7255 67.772 37.1084 71.2452 37.1138C72.8768 37.1331 74.4961 36.8295 76.0099 36.2205C77.5237 35.6114 78.9021 34.709 80.0657 33.5651C80.1678 33.461 80.248 33.3374 80.3016 33.2018C80.3551 33.0661 80.3809 32.9211 80.3775 32.7753C80.3747 32.6593 80.3486 32.545 80.3007 32.4392C80.2528 32.3335 80.184 32.2385 80.0985 32.16L78.4575 30.5312Z" fill="#3D3652"/>
<path d="M89.6841 11.1877H87.3477C87.087 11.1964 86.8395 11.3042 86.6554 11.489C86.4713 11.6738 86.3646 11.9218 86.3569 12.1826V35.7723C86.3641 36.0334 86.4706 36.2819 86.6547 36.4671C86.8388 36.6524 87.0867 36.7604 87.3477 36.7692H89.6841C89.9452 36.7604 90.193 36.6524 90.3771 36.4671C90.5612 36.2819 90.6677 36.0334 90.6749 35.7723V12.1826C90.6672 11.9218 90.5605 11.6738 90.3764 11.489C90.1924 11.3042 89.9448 11.1964 89.6841 11.1877V11.1877Z" fill="#3D3652"/>
<path d="M117.333 19.1282C117.333 14.7508 113.729 11.1877 109.298 11.1877H99.6636C99.4005 11.1888 99.1485 11.2941 98.9628 11.4805C98.7771 11.667 98.6729 11.9194 98.6729 12.1826V35.7723C98.6723 36.0358 98.7763 36.2888 98.9621 36.4757C99.1478 36.6626 99.4001 36.7681 99.6636 36.7692H101.965C102.226 36.7604 102.474 36.6524 102.658 36.4671C102.842 36.2819 102.949 36.0334 102.956 35.7723V26.999H107.785L112.41 36.2605C112.494 36.4123 112.618 36.5386 112.768 36.6263C112.917 36.714 113.088 36.7598 113.262 36.759H116.023C116.197 36.7647 116.37 36.7244 116.524 36.6419C116.678 36.5594 116.807 36.4377 116.898 36.2892C116.986 36.1324 117.032 35.9559 117.032 35.7764C117.032 35.5969 116.986 35.4204 116.898 35.2636L112.205 26.5169C115.376 25.1077 117.333 22.3056 117.333 19.1282ZM113.015 19.2C113.015 21.4215 111.184 23.3026 109.015 23.3026H103.028V15.28H109.007C111.18 15.28 113.007 17.0749 113.007 19.2H113.015Z" fill="#3D3652"/>
<path d="M142.48 30.5312C142.302 30.3869 142.079 30.3105 141.85 30.3158C141.621 30.3211 141.402 30.4076 141.231 30.5599C139.703 31.7456 137.93 32.843 135.34 32.843C130.597 32.843 126.739 28.8492 126.739 23.9364C126.739 19.0235 130.581 14.9948 135.303 14.9948C137.354 14.9948 139.569 15.8584 141.2 17.2882C141.292 17.3957 141.407 17.4813 141.537 17.5388C141.666 17.5963 141.807 17.6242 141.949 17.6205C142.071 17.6108 142.189 17.5746 142.295 17.5143C142.401 17.4541 142.493 17.3713 142.564 17.2717L144.107 15.6841C144.205 15.5889 144.282 15.4746 144.333 15.3482C144.385 15.2218 144.41 15.0861 144.406 14.9497C144.401 14.8109 144.368 14.6747 144.307 14.5497C144.247 14.4247 144.161 14.3136 144.055 14.2235C141.368 11.8769 138.663 10.8307 135.28 10.8307C128.06 10.8307 122.185 16.7425 122.185 24.0082C122.187 27.4814 123.568 30.8117 126.023 33.2686C128.478 35.7255 131.807 37.1084 135.28 37.1138C136.912 37.1329 138.531 36.8292 140.045 36.2201C141.558 35.6111 142.937 34.7088 144.101 33.5651C144.203 33.4606 144.283 33.3368 144.337 33.2008C144.39 33.0648 144.416 32.9194 144.412 32.7733C144.41 32.6572 144.384 32.5429 144.336 32.4371C144.288 32.3314 144.219 32.2364 144.133 32.1579L142.48 30.5312Z" fill="#3D3652"/>
<path d="M163.969 32.8082H154.697V12.1826C154.69 11.9218 154.583 11.6738 154.399 11.489C154.215 11.3042 153.967 11.1964 153.707 11.1877H151.37C151.107 11.1888 150.855 11.2941 150.669 11.4805C150.484 11.667 150.38 11.9194 150.38 12.1826V35.7723C150.379 36.0358 150.483 36.2888 150.669 36.4757C150.854 36.6626 151.107 36.7681 151.37 36.7692H163.969C164.1 36.7689 164.229 36.7429 164.35 36.6927C164.47 36.6425 164.58 36.5689 164.672 36.4764C164.764 36.3838 164.837 36.274 164.887 36.1532C164.937 36.0324 164.962 35.9029 164.962 35.7723V33.8133C164.963 33.682 164.939 33.5517 164.889 33.4299C164.84 33.3082 164.767 33.1974 164.675 33.1039C164.583 33.0105 164.473 32.9362 164.352 32.8855C164.231 32.8347 164.101 32.8085 163.969 32.8082V32.8082Z" fill="#3D3652"/>
<path d="M184.958 15.1794C185.221 15.1783 185.473 15.073 185.659 14.8865C185.844 14.7001 185.949 14.4476 185.949 14.1845V12.1886C185.949 11.9254 185.844 11.673 185.659 11.4866C185.473 11.3001 185.221 11.1948 184.958 11.1937H170.804C170.541 11.1948 170.289 11.3001 170.103 11.4866C169.918 11.673 169.813 11.9254 169.813 12.1886V35.7783C169.813 36.0418 169.917 36.2948 170.103 36.4817C170.288 36.6686 170.541 36.7742 170.804 36.7753H184.958C185.221 36.7742 185.474 36.6686 185.66 36.4817C185.845 36.2948 185.949 36.0418 185.949 35.7783V33.8194C185.949 33.5562 185.844 33.3038 185.659 33.1173C185.473 32.9309 185.221 32.8256 184.958 32.8245H174.086V25.7865H183.216C183.48 25.786 183.732 25.6809 183.919 25.4944C184.105 25.3079 184.209 25.0552 184.209 24.7917V22.7978C184.202 22.5364 184.095 22.2876 183.911 22.1023C183.726 21.917 183.478 21.8092 183.216 21.8009H174.092V15.1794H184.958Z" fill="#3D3652"/>
</g>
<defs>
<linearGradient id="paint0_linear" x1="15.561" y1="49.2677" x2="49.0379" y2="15.7907" gradientUnits="userSpaceOnUse">
<stop stop-color="#B090F5"/>
<stop offset="1" stop-color="#5FBFFF"/>
</linearGradient>
<linearGradient id="paint1_linear" x1="-1.1426" y1="32.1539" x2="32.3364" y2="-1.32303" gradientUnits="userSpaceOnUse">
<stop stop-color="#68D7FA"/>
<stop offset="1" stop-color="#4EE498"/>
</linearGradient>
<clipPath id="clip0">
<rect width="185.846" height="48" fill="white"/>
</clipPath>
</defs>
</svg>
