<svg width="40" height="40" viewBox="0 0 40 40" fill="none" xmlns="http://www.w3.org/2000/svg">
<path d="M20 40C31.0457 40 40 31.0457 40 20C40 8.9543 31.0457 0 20 0C8.9543 0 0 8.9543 0 20C0 31.0457 8.9543 40 20 40Z" fill="#EEFFFA"/>
<path fill-rule="evenodd" clip-rule="evenodd" d="M20 11.6667C24.6023 11.6667 28.3333 15.3976 28.3333 20C28.3333 24.6024 24.6023 28.3333 20 28.3333C15.3976 28.3333 11.6666 24.6024 11.6666 20C11.6666 15.3976 15.3976 11.6667 20 11.6667ZM23.8387 16.8374C23.4728 16.5583 22.9499 16.6286 22.6707 16.9946L18.835 22.0227L17.2902 20.2805C16.9848 19.9361 16.4581 19.9045 16.1138 20.2098C15.7694 20.5151 15.7378 21.0418 16.0431 21.3862L18.2598 23.8862C18.6078 24.2787 19.2277 24.2559 19.5459 23.8388L23.9958 18.0054C24.275 17.6395 24.2046 17.1166 23.8387 16.8374Z" fill="#1ED67D"/>
</svg>
