<svg width="40" height="40" viewBox="0 0 40 40" fill="none" xmlns="http://www.w3.org/2000/svg">
<path d="M20 40C31.0457 40 40 31.0457 40 20C40 8.9543 31.0457 0 20 0C8.9543 0 0 8.9543 0 20C0 31.0457 8.9543 40 20 40Z" fill="#F1F8FF"/>
<path fill-rule="evenodd" clip-rule="evenodd" d="M22.954 9.57456C27.5804 10.8831 30.8333 15.1213 30.8333 20C30.8333 24.8787 27.5804 29.1169 22.954 30.4255C22.4742 30.5611 21.9753 30.2822 21.8396 29.8025C21.7039 29.3227 21.9828 28.8237 22.4626 28.6881C26.3165 27.598 29.0277 24.0656 29.0277 20C29.0277 15.9345 26.3165 12.402 22.4626 11.312C21.9828 11.1763 21.7039 10.6773 21.8396 10.1976C21.9753 9.71779 22.4742 9.43887 22.954 9.57456ZM18.1603 10.1976C18.296 10.6773 18.0171 11.1763 17.5373 11.312C13.6834 12.402 10.9722 15.9345 10.9722 20C10.9722 24.0656 13.6834 27.598 17.5373 28.6881C18.0171 28.8237 18.296 29.3227 18.1603 29.8025C18.0246 30.2822 17.5257 30.5611 17.0459 30.4255C12.4195 29.1169 9.16663 24.8787 9.16663 20C9.16663 15.1213 12.4195 10.8831 17.0459 9.57456C17.5257 9.43887 18.0246 9.71779 18.1603 10.1976ZM20 12.7778C20.4985 12.7778 20.9027 13.182 20.9027 13.6806V14.5833H22.7083C23.2069 14.5833 23.6111 14.9875 23.6111 15.4861C23.6111 15.9847 23.2069 16.3889 22.7083 16.3889H18.6458C17.8979 16.3889 17.2916 16.9952 17.2916 17.7431C17.2916 18.4909 17.8979 19.0972 18.6458 19.0972H21.3541C23.0992 19.0972 24.5138 20.5119 24.5138 22.257C24.5138 24.002 23.0992 25.4167 21.3541 25.4167H20.9027V26.3195C20.9027 26.818 20.4985 27.2222 20 27.2222C19.5014 27.2222 19.0972 26.818 19.0972 26.3195V25.4167H17.2916C16.793 25.4167 16.3888 25.0125 16.3888 24.5139C16.3888 24.0153 16.793 23.6111 17.2916 23.6111H21.3541C22.102 23.6111 22.7083 23.0048 22.7083 22.257C22.7083 21.5091 22.102 20.9028 21.3541 20.9028H18.6458C16.9007 20.9028 15.4861 19.4881 15.4861 17.7431C15.4861 15.998 16.9007 14.5833 18.6458 14.5833H19.0972V13.6806C19.0972 13.182 19.5014 12.7778 20 12.7778Z" fill="#1AA3FF"/>
</svg>
