<svg width="40" height="40" viewBox="0 0 40 40" fill="none" xmlns="http://www.w3.org/2000/svg">
<path d="M20 40C31.0457 40 40 31.0457 40 20C40 8.9543 31.0457 0 20 0C8.9543 0 0 8.9543 0 20C0 31.0457 8.9543 40 20 40Z" fill="#FFF7EA"/>
<path fill-rule="evenodd" clip-rule="evenodd" d="M11.1202 13.2426C12.8816 12.0786 15.3974 12.0819 18.6444 13.1642C21.4986 14.1156 23.5606 14.1156 24.8541 13.2533C25.3065 12.9517 25.9203 13.2059 26.0269 13.7391L27.5547 21.378C27.6154 21.6815 27.4869 21.9917 27.2293 22.1634C25.4672 23.3381 22.9459 23.3381 19.689 22.2525C17.1357 21.4014 15.2164 21.3116 13.914 21.9195L14.9522 27.107C15.035 27.5207 14.7668 27.9232 14.3531 28.006C13.9394 28.0888 13.537 27.8205 13.4542 27.4068L10.7788 14.0388C10.7149 13.7194 10.8602 13.4066 11.1202 13.2426Z" fill="#FFA876"/>
</svg>
